# xmcd CD database file
#
# Track frame offsets:
#	150
#	19230
#	47000
#	61552
#	75047
#	88165
#	104197
#	119045
#	133500
#	146582
#	169190
#	184032
#	195342
#	210242
#	223897
#	238815
#	260460
#	273905
#	287585
#	299917
#
# Disc length: 4183 seconds
#
# Revision: 0
# Processed by: cddbd v1.4PL0 Copyright (c) Steve Scherf et al.
# Submitted via: CDex 1.51
#
DISCID=30105514
DTITLE=Louis Armstrong - 20 Blues Classics
DYEAR=1996
DGENRE=Blues
TTITLE0=Black And Blue
TTITLE1=Muskrat Ramble
TTITLE2=Dear Old Southland
TTITLE3=Hobo You Can't Ride This Train
TTITLE4=I Got A Right To Sing The Blues
TTITLE5=I Can't Give You Anything But Love
TTITLE6=Body And Soul
TTITLE7=Someday You'll Be Sorry
TTITLE8=Heebie Jeebies
TTITLE9=Royal Garden Blues
TTITLE10=Tiger Rag
TTITLE11=Jeepers Creepers
TTITLE12=Baby Won't You Please Come Home
TTITLE13=Harlem Stomp
TTITLE14=Wolverine Blues
TTITLE15=St. James Infirmary
TTITLE16=Do You Know What It Means To Miss New Orleans
TTITLE17=That Lucky Old Sun
TTITLE18=Brother Bill
TTITLE19=Old Rocking Chair
EXTD=YEAR: 1996
EXTT0=
EXTT1=
EXTT2=
EXTT3=
EXTT4=
EXTT5=
EXTT6=
EXTT7=
EXTT8=
EXTT9=
EXTT10=
EXTT11=
EXTT12=
EXTT13=
EXTT14=
EXTT15=
EXTT16=
EXTT17=
EXTT18=
EXTT19=
PLAYORDER=
